<?xml version="1.0" encoding="utf-8"?>
<!-- Generator: Adobe Illustrator 24.0.1, SVG Export Plug-In . SVG Version: 6.00 Build 0)  -->
<svg version="1.1" id="Слой_1" xmlns="http://www.w3.org/2000/svg" xmlns:xlink="http://www.w3.org/1999/xlink" x="0px" y="0px"
	 viewBox="0 0 192.8 29.3" style="enable-background:new 0 0 192.8 29.3;" xml:space="preserve">
<style type="text/css">
	.st0{fill:#FFFFFF;}
</style>
<g>
	<g>
		<g>
			<path class="st0" d="M8.6,2.9h2.3V1.1h7v1.8h2.3c6.8,0,8.6,1.3,8.6,3.4S27,9.7,20.2,9.7H18V12h-7V9.8H8.6C1.8,9.8,0,8.5,0,6.4
				C0,4.2,1.8,2.9,8.6,2.9z M8.6,7.5h2.3V5.3H8.6C7.4,5.3,7,5.9,7,6.4C7,6.8,7.4,7.5,8.6,7.5z M18,5.3v2.2h2.3
				c1.2,0,1.5-0.7,1.5-1.1s-0.4-1.1-1.5-1.1H18z"/>
			<path class="st0" d="M39.2,1.7h8.7L54.8,12h-8l-1.3-2h-7.8l-1.2,2h-4.1L39.2,1.7z M38.9,8h5.2l-2.7-4.1L38.9,8z"/>
			<path class="st0" d="M80.6,1.7v2.6H67v1.1h7.5c5.3,0,7.7,0.9,7.7,3.2c0,2.2-2.2,3.4-7.1,3.4H60V1.7H80.6z M67,7.5v1.9h6
				c1.2,0,1.5-0.5,1.5-1s-0.5-1-1.5-1L67,7.5L67,7.5z"/>
			<path class="st0" d="M87.8,12V1.7H103c4.9,0,7.1,1,7.1,3.2c0,2.4-2.4,3.1-8.5,3.1h-6.7v4H87.8L87.8,12z M94.9,4.3v1.6h6
				c1.1,0,1.6-0.3,1.6-0.8c0-0.4-0.4-0.8-1.6-0.8C100.9,4.3,94.9,4.3,94.9,4.3z"/>
			<path class="st0" d="M130,12V4.8l-7.5,7.2h-7.1V1.7h7.1v7.2l7.5-7.2h7.1V12H130z"/>
			<path class="st0" d="M143.3,12V1.7h7.1v4h3.5c1.5-0.1,2-1,2.3-2.8c0.1-0.8,0.6-1.3,0.6-1.3h8.2c0,0-0.7,0.6-1.6,2.7
				c-0.7,1.5-2.6,2.2-4.3,2.3v0.2c1.7,0,3.8,0.8,4.6,2.4c1,2.1,1.6,2.7,1.6,2.7h-8.6c0,0-0.5-0.5-0.6-1.3c-0.3-2-0.9-2.9-2.8-2.9
				h-2.9V12H143.3L143.3,12z"/>
			<path class="st0" d="M177.1,1.7h8.7l6.9,10.3h-8l-1.3-2h-7.8l-1.2,2h-4.1L177.1,1.7z M176.9,8h5.2l-2.7-4.1L176.9,8z"/>
		</g>
	</g>
	<g>
		<g>
			<g>
				<path class="st0" d="M76.2,27.7h-0.4c-0.4,0-0.5-0.1-0.5-0.8v-1.6c0.8,0,1.4,0.1,1.6,0.9H77v-2.1h-0.2c0,0.7-0.5,0.8-1.6,0.9
					v-2.3h0.6c1.1,0,1.7,0.3,2,1.3H78l-0.2-1.6h-4.9v0.2h0.2c0.5,0,0.6,0.3,0.6,0.8v3.7c0,0.5,0,0.7-0.6,0.8h-0.2v0.2h5l0.4-1.8
					h-0.2C77.9,27.2,77.2,27.7,76.2,27.7z"/>
				<path class="st0" d="M85.3,27.1l-1.7-2.3l1.2-1.3c0.4-0.5,0.7-0.7,1.3-0.9v-0.2H84v0.2c0.9,0,0.7,0.6,0.2,1.2l-0.6,0.7l-0.8-1.1
					c-0.4-0.6-0.3-0.8,0.1-0.8H83v-0.2h-3v0.2c0.5,0.1,0.7,0.4,1,0.8l1.5,2.1l-1.2,1.4c-0.4,0.5-0.8,0.8-1.5,1v0.2h2.4v-0.2
					c-0.7,0-0.9-0.4-0.4-1l0.9-1.1l0.9,1.2c0.3,0.4,0.5,0.7-0.2,0.9v0.2h3v-0.2C85.9,27.7,85.7,27.5,85.3,27.1z"/>
				<path class="st0" d="M66.1,22.4l-0.2,1.7h0.2c0.1-0.7,0.4-1.3,1.3-1.4h0.4V27c0,0.5,0,0.8-0.6,0.8H67V28h3.2v-0.2H70
					c-0.5,0-0.6-0.2-0.6-0.8v-4.3h0.4c0.8,0,1.1,0.7,1.3,1.4h0.2l-0.2-1.7H66.1z"/>
				<path class="st0" d="M94.3,25h-0.8v-2.2h1.1c0.8,0,1.4,0.5,1.6,1.3h0.2l-0.2-1.7h-5v0.3c0.5,0,0.8,0,0.9,0.6v3.8
					c0,0.6-0.3,0.7-0.9,0.7V28h3.3c1,0,2.4-0.3,2.4-1.5C96.7,25.4,95.5,25,94.3,25z M94,27.8c-0.3,0-0.5-0.2-0.5-0.7v-1.7
					c0.8,0,1.6,0.3,1.6,1.3C95.1,27.2,94.8,27.8,94,27.8z"/>
				<path class="st0" d="M127.8,22.4h-5.2v0.2c0.5,0,0.8,0,0.9,0.6v3.9c0,0.3-0.1,0.6-0.3,0.6h-2.1c-0.3,0-0.5-0.4-0.7-0.9l-2.2-4.6
					H118l-2.1,4.5c-0.2,0.5-0.4,0.9-1,1.1V28h2v-0.2c-0.6-0.1-1-0.2-0.7-0.9l0.2-0.5h2.2l0.3,0.7c0.2,0.5,0.2,0.7-0.5,0.7V28h7.8
					v-0.2c-0.6,0-1.2-0.2-1.2-0.7v-4.4h1.2c0.9,0,1.4,0.5,1.6,1.5h0.2L127.8,22.4z M116.7,26.1l0.9-1.9l0.9,1.9H116.7z"/>
				<path class="st0" d="M109.6,25.7l-1.8-3.2h-5.4v0.2c0.7,0,1,0.1,0.6,0.9l-1.1,2.1l-1.5-2.5c-0.2-0.4,0-0.5,0.5-0.5v-0.2h-3v0.2
					c0.6,0.1,0.7,0.2,1.1,0.7l2.2,3.7l-0.1,0.1c-0.2,0.4-0.4,0.5-0.6,0.5s-0.3-0.1-0.3-0.4s-0.2-0.5-0.5-0.5s-0.6,0.2-0.6,0.5
					c0,0.5,0.4,0.8,1,0.8c0.8,0,1.2-0.5,1.5-1.2l1.9-3.4c0.2-0.3,0.5-0.8,0.9-0.8h1.5c0.4,0,0.5,0.3,0.5,0.7V27
					c0,0.5-0.1,0.9-0.8,0.9v0.2h2.1v-0.2c-0.4,0-0.8-0.1-0.9-1V23l2.4,4.3h0.2l2.2-4.4v4.2c0,0.5,0,0.6-0.6,0.8h-0.2v0.2h3.2v-0.2
					h-0.2c-0.4,0-0.7-0.2-0.7-0.8v-3.7c0-0.5,0.1-0.8,0.7-0.8h0.2v-0.2h-2.5L109.6,25.7z"/>
			</g>
		</g>
		<g>
			<path class="st0" d="M56.7,25.3c0-0.7,0.6-1.2,1.3-1.2s1.3,0.6,1.3,1.2s-0.6,1.2-1.3,1.2S56.7,26,56.7,25.3z"/>
			<path class="st0" d="M133.4,25.3c0-0.7,0.6-1.2,1.3-1.2s1.3,0.6,1.3,1.2s-0.6,1.2-1.3,1.2S133.4,26,133.4,25.3z"/>
		</g>
	</g>
</g>
</svg>
